<svg version="1" xmlns="http://www.w3.org/2000/svg" width="346.667" height="346.667" viewBox="0 0 260.000000 260.000000"><path d="M105.5 10.5C82 14.9 59.2 27 42.3 44.2 31.4 55.2 25 64.1 18.4 77.5c-6.5 13.3-10.2 26.9-11.4 42-.8 10.8.1 29.9 1.8 36 .8 2.9 1.1 2.6 6.6-8.2 10.4-20.4 24.1-37.2 40.1-49.1C69.2 88 93.4 77.7 113.3 73.6c18.4-3.8 42-3.9 59.9-.1 7.6 1.6 23.8 6.3 23.8 7 0 .2-3.9.1-8.8-.2-10.9-.7-26.9 1.1-38.1 4.3-32.8 9.4-53.9 31-63.3 65-2 7.1-2.2 10.4-2.2 30.9-.1 24.6.9 34 6 55.6l2.5 10.7 6.2 1.5c59.9 15.1 123.3-18.9 144.2-77.3 6.8-19 8.6-44.3 4.6-64.8-8.7-44.9-43.8-81.9-89.1-93.9-8.1-2.2-12.2-2.6-27.5-2.9-13-.2-20.2.1-26 1.1z"/></svg>